# MagicaVoxel @ Ephtracy

# group
o 

# material
mtllib juice.mtl
usemtl palette

# normals
vn -1 0 0
vn 1 0 0
vn 0 0 1
vn 0 0 -1
vn 0 -1 0
vn 0 1 0

# texcoords
vt 0.0488281 0.5
vt 0.0722656 0.5
vt 0.123047 0.5

# verts
v -0.4 0 0.5
v -0.4 0 -0.6
v -0.4 0.1 -0.5
v -0.4 0.1 -0.6
v -0.4 0.2 0.6
v -0.4 0.2 0.5
v -0.4 0.2 0.2
v -0.4 0.2 0
v -0.4 0.2 -0.5
v -0.4 0.2 -0.6
v -0.4 0.2 -0.7
v -0.4 0.3 0.6
v -0.4 0.3 0.5
v -0.4 0.3 0.3
v -0.4 0.3 0.2
v -0.4 0.3 0
v -0.4 0.4 0.3
v -0.4 0.4 0.2
v -0.4 0.5 -0.1
v -0.4 0.5 -0.2
v -0.4 0.6 -0.1
v -0.4 0.6 -0.2
v -0.4 0.6 -0.4
v -0.4 0.7 -0.2
v -0.4 0.7 -0.4
v -0.4 0.7 -0.5
v -0.4 0.8 0.6
v -0.4 0.8 0.5
v -0.4 0.8 -0.6
v -0.4 0.8 -0.7
v -0.4 1 -0.4
v -0.4 1 -0.5
v -0.4 1.1 0.5
v -0.4 1.1 0.3
v -0.4 1.1 -0.4
v -0.4 1.1 -0.6
v -0.4 1.2 0.3
v -0.4 1.2 -0.4
v -0.3 0.8 0.6
v -0.3 0.8 0.5
v -0.3 0.8 -0.6
v -0.3 0.8 -0.7
v -0.3 1 0.6
v -0.3 1 0.5
v -0.3 1 -0.6
v -0.3 1 -0.7
v -0.3 1.1 0.4
v -0.3 1.1 0.3
v -0.3 1.1 -0.4
v -0.3 1.1 -0.5
v -0.3 1.2 0.4
v -0.3 1.2 0.3
v -0.3 1.2 0.2
v -0.3 1.2 0.1
v -0.3 1.2 0
v -0.3 1.2 -0.3
v -0.3 1.2 -0.4
v -0.3 1.2 -0.5
v -0.3 1.3 0.2
v -0.3 1.3 0.1
v -0.3 1.3 0
v -0.3 1.3 -0.3
v -0.2 0.1 0.6
v -0.2 0.1 0.5
v -0.2 0.1 -0.6
v -0.2 0.1 -0.7
v -0.2 0.2 0.6
v -0.2 0.2 0.5
v -0.2 0.2 -0.6
v -0.2 0.2 -0.7
v -0.2 0.4 0.7
v -0.2 0.4 0.6
v -0.2 0.4 -0.7
v -0.2 0.4 -0.8
v -0.2 0.6 0.7
v -0.2 0.6 0.6
v -0.2 0.8 0.7
v -0.2 0.8 0.6
v -0.2 0.8 -0.7
v -0.2 0.8 -0.8
v -0.2 1.2 0.3
v -0.2 1.2 0.2
v -0.2 1.2 -0.3
v -0.2 1.2 -0.4
v -0.2 1.3 0.3
v -0.2 1.3 0.2
v -0.2 1.3 0.1
v -0.2 1.3 0
v -0.2 1.3 -0.2
v -0.2 1.3 -0.3
v -0.2 1.3 -0.4
v -0.2 1.4 0.1
v -0.2 1.4 -0.2
v -0.1 1.3 0.2
v -0.1 1.3 0.1
v -0.1 1.3 -0.2
v -0.1 1.3 -0.3
v -0.1 1.4 0.2
v -0.1 1.4 0.1
v -0.1 1.4 0
v -0.1 1.4 -0.1
v -0.1 1.4 -0.2
v -0.1 1.4 -0.3
v -0.1 1.5 0
v -0.1 1.5 -0.1
v 0 1.4 0.1
v 0 1.4 0
v 0 1.4 -0.1
v 0 1.4 -0.2
v 0 1.5 0.1
v 0 1.5 0
v 0 1.5 -0.1
v 0 1.5 -0.2
v 0.1 1.4 0.1
v 0.1 1.4 0
v 0.1 1.4 -0.1
v 0.1 1.4 -0.2
v 0.1 1.5 0.1
v 0.1 1.5 0
v 0.1 1.5 -0.1
v 0.1 1.5 -0.2
v 0.2 1.3 0.2
v 0.2 1.3 0.1
v 0.2 1.3 -0.2
v 0.2 1.3 -0.3
v 0.2 1.4 0.2
v 0.2 1.4 0.1
v 0.2 1.4 0
v 0.2 1.4 -0.1
v 0.2 1.4 -0.2
v 0.2 1.4 -0.3
v 0.2 1.5 0
v 0.2 1.5 -0.1
v 0.3 0.1 0.6
v 0.3 0.1 0.5
v 0.3 0.1 -0.6
v 0.3 0.1 -0.7
v 0.3 0.2 0.6
v 0.3 0.2 0.5
v 0.3 0.2 -0.6
v 0.3 0.2 -0.7
v 0.3 0.4 0.7
v 0.3 0.4 0.6
v 0.3 0.4 -0.7
v 0.3 0.4 -0.8
v 0.3 0.6 -0.7
v 0.3 0.6 -0.8
v 0.3 0.8 0.7
v 0.3 0.8 0.6
v 0.3 0.8 -0.7
v 0.3 0.8 -0.8
v 0.3 1.2 0.3
v 0.3 1.2 0.2
v 0.3 1.2 -0.3
v 0.3 1.2 -0.4
v 0.3 1.3 0.3
v 0.3 1.3 0.2
v 0.3 1.3 0.1
v 0.3 1.3 -0.1
v 0.3 1.3 -0.2
v 0.3 1.3 -0.3
v 0.3 1.3 -0.4
v 0.3 1.4 0.1
v 0.3 1.4 -0.2
v 0.4 0.8 0.6
v 0.4 0.8 0.5
v 0.4 0.8 -0.6
v 0.4 0.8 -0.7
v 0.4 1 0.6
v 0.4 1 0.5
v 0.4 1 -0.6
v 0.4 1 -0.7
v 0.4 1.1 0.4
v 0.4 1.1 0.3
v 0.4 1.1 -0.4
v 0.4 1.1 -0.5
v 0.4 1.2 0.4
v 0.4 1.2 0.3
v 0.4 1.2 0.2
v 0.4 1.2 -0.1
v 0.4 1.2 -0.2
v 0.4 1.2 -0.3
v 0.4 1.2 -0.4
v 0.4 1.2 -0.5
v 0.4 1.3 0.2
v 0.4 1.3 -0.1
v 0.4 1.3 -0.2
v 0.4 1.3 -0.3
v 0.5 0 0.5
v 0.5 0 -0.6
v 0.5 0.1 0.5
v 0.5 0.1 0.4
v 0.5 0.2 0.6
v 0.5 0.2 0.5
v 0.5 0.2 0.4
v 0.5 0.2 -0.2
v 0.5 0.2 -0.4
v 0.5 0.2 -0.6
v 0.5 0.2 -0.7
v 0.5 0.3 -0.2
v 0.5 0.3 -0.4
v 0.5 0.3 -0.5
v 0.5 0.3 -0.6
v 0.5 0.3 -0.7
v 0.5 0.4 -0.4
v 0.5 0.4 -0.5
v 0.5 0.5 0.1
v 0.5 0.5 0
v 0.5 0.6 0.3
v 0.5 0.6 0.1
v 0.5 0.6 0
v 0.5 0.7 0.4
v 0.5 0.7 0.3
v 0.5 0.7 0.1
v 0.5 0.8 0.6
v 0.5 0.8 0.5
v 0.5 0.8 -0.6
v 0.5 0.8 -0.7
v 0.5 1 0.4
v 0.5 1 0.3
v 0.5 1.1 0.5
v 0.5 1.1 0.3
v 0.5 1.1 -0.4
v 0.5 1.1 -0.6
v 0.5 1.2 0.3
v 0.5 1.2 -0.4
v -0.2 0.4 0.7
v -0.2 0.6 0.7
v -0.2 0.8 0.7
v -0.1 0.5 0.7
v -0.1 0.6 0.7
v -0.1 0.8 0.7
v 0 0.4 0.7
v 0 0.5 0.7
v 0 0.6 0.7
v 0.2 0.4 0.7
v 0.2 0.5 0.7
v 0.3 0.4 0.7
v 0.3 0.8 0.7
v -0.4 0.2 0.6
v -0.4 0.3 0.6
v -0.4 0.8 0.6
v -0.3 0.8 0.6
v -0.3 1 0.6
v -0.2 0.1 0.6
v -0.2 0.2 0.6
v -0.2 0.3 0.6
v -0.2 0.4 0.6
v -0.2 0.6 0.6
v -0.2 0.8 0.6
v -0.2 1 0.6
v -0.1 0.8 0.6
v 0 0.4 0.6
v 0.2 0.3 0.6
v 0.2 0.4 0.6
v 0.3 0.1 0.6
v 0.3 0.2 0.6
v 0.3 0.4 0.6
v 0.3 0.8 0.6
v 0.4 0.3 0.6
v 0.4 0.4 0.6
v 0.4 0.8 0.6
v 0.4 1 0.6
v 0.5 0.2 0.6
v 0.5 0.8 0.6
v -0.4 0 0.5
v -0.4 0.2 0.5
v -0.4 0.8 0.5
v -0.4 1.1 0.5
v -0.3 0.8 0.5
v -0.3 1 0.5
v -0.2 0.1 0.5
v -0.2 0.2 0.5
v -0.2 1 0.5
v 0.3 0.1 0.5
v 0.3 0.2 0.5
v 0.4 0.8 0.5
v 0.4 1 0.5
v 0.5 0 0.5
v 0.5 0.1 0.5
v 0.5 0.2 0.5
v 0.5 0.8 0.5
v 0.5 1.1 0.5
v -0.3 1.1 0.4
v -0.3 1.2 0.4
v 0.2 1.1 0.4
v 0.2 1.2 0.4
v 0.4 1.1 0.4
v 0.4 1.2 0.4
v -0.4 1.1 0.3
v -0.4 1.2 0.3
v -0.3 1.1 0.3
v -0.3 1.2 0.3
v -0.2 1.2 0.3
v -0.2 1.3 0.3
v 0.2 1.2 0.3
v 0.3 1.2 0.3
v 0.3 1.3 0.3
v 0.4 1.1 0.3
v 0.4 1.2 0.3
v 0.5 1.1 0.3
v 0.5 1.2 0.3
v -0.3 1.2 0.2
v -0.3 1.3 0.2
v -0.2 1.2 0.2
v -0.2 1.3 0.2
v -0.1 1.3 0.2
v -0.1 1.4 0.2
v 0.2 1.3 0.2
v 0.2 1.4 0.2
v 0.3 1.2 0.2
v 0.3 1.3 0.2
v 0.4 1.2 0.2
v 0.4 1.3 0.2
v -0.2 1.3 0.1
v -0.2 1.4 0.1
v -0.1 1.3 0.1
v -0.1 1.4 0.1
v 0 1.4 0.1
v 0 1.5 0.1
v 0.1 1.4 0.1
v 0.1 1.5 0.1
v 0.2 1.3 0.1
v 0.2 1.4 0.1
v 0.3 1.3 0.1
v 0.3 1.4 0.1
v -0.1 1.4 0
v -0.1 1.5 0
v 0 1.4 0
v 0 1.5 0
v 0.1 1.4 0
v 0.1 1.5 0
v 0.2 1.4 0
v 0.2 1.5 0
v -0.1 1.4 -0.1
v -0.1 1.5 -0.1
v 0 1.4 -0.1
v 0 1.5 -0.1
v 0.1 1.4 -0.1
v 0.1 1.5 -0.1
v 0.2 1.4 -0.1
v 0.2 1.5 -0.1
v -0.2 1.3 -0.2
v -0.2 1.4 -0.2
v -0.1 1.3 -0.2
v -0.1 1.4 -0.2
v 0 1.4 -0.2
v 0 1.5 -0.2
v 0.1 1.4 -0.2
v 0.1 1.5 -0.2
v 0.2 1.3 -0.2
v 0.2 1.4 -0.2
v 0.3 1.3 -0.2
v 0.3 1.4 -0.2
v -0.3 1.2 -0.3
v -0.3 1.3 -0.3
v -0.2 1.2 -0.3
v -0.2 1.3 -0.3
v -0.1 1.3 -0.3
v -0.1 1.4 -0.3
v 0.2 1.3 -0.3
v 0.2 1.4 -0.3
v 0.3 1.2 -0.3
v 0.3 1.3 -0.3
v 0.4 1.2 -0.3
v 0.4 1.3 -0.3
v -0.4 1.1 -0.4
v -0.4 1.2 -0.4
v -0.3 1.1 -0.4
v -0.3 1.2 -0.4
v -0.2 1.2 -0.4
v -0.2 1.3 -0.4
v -0.1 1.2 -0.4
v 0.3 1.2 -0.4
v 0.3 1.3 -0.4
v 0.4 1.1 -0.4
v 0.4 1.2 -0.4
v 0.5 1.1 -0.4
v 0.5 1.2 -0.4
v -0.3 1.1 -0.5
v -0.3 1.2 -0.5
v -0.1 1.1 -0.5
v -0.1 1.2 -0.5
v 0.4 1.1 -0.5
v 0.4 1.2 -0.5
v -0.4 0 -0.6
v -0.4 0.1 -0.6
v -0.4 0.2 -0.6
v -0.4 0.8 -0.6
v -0.4 1.1 -0.6
v -0.3 0.8 -0.6
v -0.3 1 -0.6
v -0.2 0.1 -0.6
v -0.2 0.2 -0.6
v 0.3 0.1 -0.6
v 0.3 0.2 -0.6
v 0.3 1 -0.6
v 0.4 0.8 -0.6
v 0.4 1 -0.6
v 0.5 0 -0.6
v 0.5 0.2 -0.6
v 0.5 0.8 -0.6
v 0.5 1.1 -0.6
v -0.4 0.2 -0.7
v -0.4 0.8 -0.7
v -0.3 0.3 -0.7
v -0.3 0.4 -0.7
v -0.3 0.8 -0.7
v -0.3 1 -0.7
v -0.2 0.1 -0.7
v -0.2 0.2 -0.7
v -0.2 0.4 -0.7
v -0.2 0.8 -0.7
v -0.1 0.3 -0.7
v -0.1 0.4 -0.7
v 0.1 0.4 -0.7
v 0.2 0.8 -0.7
v 0.3 0.1 -0.7
v 0.3 0.2 -0.7
v 0.3 0.3 -0.7
v 0.3 0.4 -0.7
v 0.3 0.6 -0.7
v 0.3 0.8 -0.7
v 0.3 1 -0.7
v 0.4 0.8 -0.7
v 0.4 1 -0.7
v 0.5 0.2 -0.7
v 0.5 0.3 -0.7
v 0.5 0.8 -0.7
v -0.2 0.4 -0.8
v -0.2 0.8 -0.8
v -0.1 0.4 -0.8
v -0.1 0.5 -0.8
v 0.1 0.4 -0.8
v 0.1 0.5 -0.8
v 0.1 0.6 -0.8
v 0.2 0.5 -0.8
v 0.2 0.6 -0.8
v 0.2 0.8 -0.8
v 0.3 0.4 -0.8
v 0.3 0.6 -0.8
v 0.3 0.8 -0.8
v -0.4 0 0.5
v 0.5 0 0.5
v -0.4 0 -0.6
v 0.5 0 -0.6
v -0.2 0.1 0.6
v 0.3 0.1 0.6
v -0.2 0.1 0.5
v 0.3 0.1 0.5
v -0.2 0.1 -0.6
v 0.3 0.1 -0.6
v -0.2 0.1 -0.7
v 0.3 0.1 -0.7
v -0.4 0.2 0.6
v -0.2 0.2 0.6
v 0.3 0.2 0.6
v 0.5 0.2 0.6
v -0.4 0.2 0.5
v -0.2 0.2 0.5
v 0.3 0.2 0.5
v 0.5 0.2 0.5
v -0.4 0.2 -0.6
v -0.2 0.2 -0.6
v 0.3 0.2 -0.6
v 0.5 0.2 -0.6
v -0.4 0.2 -0.7
v -0.2 0.2 -0.7
v 0.3 0.2 -0.7
v 0.5 0.2 -0.7
v -0.2 0.4 0.7
v 0 0.4 0.7
v 0.2 0.4 0.7
v 0.3 0.4 0.7
v -0.2 0.4 0.6
v 0 0.4 0.6
v 0.2 0.4 0.6
v 0.3 0.4 0.6
v -0.2 0.4 -0.7
v -0.1 0.4 -0.7
v 0.1 0.4 -0.7
v 0.3 0.4 -0.7
v -0.2 0.4 -0.8
v -0.1 0.4 -0.8
v 0.1 0.4 -0.8
v 0.3 0.4 -0.8
v -0.2 0.8 0.7
v -0.1 0.8 0.7
v 0.3 0.8 0.7
v -0.4 0.8 0.6
v -0.3 0.8 0.6
v -0.2 0.8 0.6
v -0.1 0.8 0.6
v 0.3 0.8 0.6
v 0.4 0.8 0.6
v 0.5 0.8 0.6
v -0.4 0.8 0.5
v -0.3 0.8 0.5
v 0.4 0.8 0.5
v 0.5 0.8 0.5
v -0.4 0.8 -0.6
v -0.3 0.8 -0.6
v 0.4 0.8 -0.6
v 0.5 0.8 -0.6
v -0.4 0.8 -0.7
v -0.3 0.8 -0.7
v -0.2 0.8 -0.7
v 0.2 0.8 -0.7
v 0.3 0.8 -0.7
v 0.4 0.8 -0.7
v 0.5 0.8 -0.7
v -0.2 0.8 -0.8
v 0.2 0.8 -0.8
v 0.3 0.8 -0.8
v -0.3 1 0.6
v -0.2 1 0.6
v 0.4 1 0.6
v -0.3 1 0.5
v -0.2 1 0.5
v 0.4 1 0.5
v -0.3 1 -0.6
v 0.3 1 -0.6
v 0.4 1 -0.6
v -0.3 1 -0.7
v 0.3 1 -0.7
v 0.4 1 -0.7
v -0.4 1.1 0.5
v 0.5 1.1 0.5
v -0.3 1.1 0.4
v 0.2 1.1 0.4
v 0.4 1.1 0.4
v -0.4 1.1 0.3
v -0.3 1.1 0.3
v 0.4 1.1 0.3
v 0.5 1.1 0.3
v -0.4 1.1 -0.4
v -0.3 1.1 -0.4
v 0.4 1.1 -0.4
v 0.5 1.1 -0.4
v -0.3 1.1 -0.5
v -0.1 1.1 -0.5
v 0.4 1.1 -0.5
v -0.4 1.1 -0.6
v 0.5 1.1 -0.6
v -0.3 1.2 0.4
v 0.2 1.2 0.4
v 0.4 1.2 0.4
v -0.4 1.2 0.3
v -0.3 1.2 0.3
v -0.2 1.2 0.3
v 0.2 1.2 0.3
v 0.3 1.2 0.3
v 0.4 1.2 0.3
v 0.5 1.2 0.3
v -0.3 1.2 0.2
v -0.2 1.2 0.2
v 0.3 1.2 0.2
v 0.4 1.2 0.2
v -0.3 1.2 0.1
v -0.3 1.2 0
v 0.4 1.2 -0.1
v 0.4 1.2 -0.2
v -0.3 1.2 -0.3
v -0.2 1.2 -0.3
v 0.3 1.2 -0.3
v 0.4 1.2 -0.3
v -0.4 1.2 -0.4
v -0.3 1.2 -0.4
v -0.2 1.2 -0.4
v -0.1 1.2 -0.4
v 0.3 1.2 -0.4
v 0.4 1.2 -0.4
v 0.5 1.2 -0.4
v -0.3 1.2 -0.5
v -0.1 1.2 -0.5
v 0.4 1.2 -0.5
v -0.2 1.3 0.3
v 0.3 1.3 0.3
v -0.3 1.3 0.2
v -0.2 1.3 0.2
v -0.1 1.3 0.2
v 0.2 1.3 0.2
v 0.3 1.3 0.2
v 0.4 1.3 0.2
v -0.3 1.3 0.1
v -0.2 1.3 0.1
v -0.1 1.3 0.1
v 0.2 1.3 0.1
v 0.3 1.3 0.1
v -0.3 1.3 0
v -0.2 1.3 0
v 0.3 1.3 -0.1
v 0.4 1.3 -0.1
v -0.2 1.3 -0.2
v -0.1 1.3 -0.2
v 0.2 1.3 -0.2
v 0.3 1.3 -0.2
v 0.4 1.3 -0.2
v -0.3 1.3 -0.3
v -0.2 1.3 -0.3
v -0.1 1.3 -0.3
v 0.2 1.3 -0.3
v 0.3 1.3 -0.3
v 0.4 1.3 -0.3
v -0.2 1.3 -0.4
v 0.3 1.3 -0.4
v -0.1 1.4 0.2
v 0.2 1.4 0.2
v -0.2 1.4 0.1
v -0.1 1.4 0.1
v 0 1.4 0.1
v 0.1 1.4 0.1
v 0.2 1.4 0.1
v 0.3 1.4 0.1
v -0.1 1.4 0
v 0 1.4 0
v 0.1 1.4 0
v 0.2 1.4 0
v -0.1 1.4 -0.1
v 0 1.4 -0.1
v 0.1 1.4 -0.1
v 0.2 1.4 -0.1
v -0.2 1.4 -0.2
v -0.1 1.4 -0.2
v 0 1.4 -0.2
v 0.1 1.4 -0.2
v 0.2 1.4 -0.2
v 0.3 1.4 -0.2
v -0.1 1.4 -0.3
v 0.2 1.4 -0.3
v 0 1.5 0.1
v 0.1 1.5 0.1
v -0.1 1.5 0
v 0 1.5 0
v 0.1 1.5 0
v 0.2 1.5 0
v -0.1 1.5 -0.1
v 0 1.5 -0.1
v 0.1 1.5 -0.1
v 0.2 1.5 -0.1
v 0 1.5 -0.2
v 0.1 1.5 -0.2

# faces
f 3/2/1 2/2/1 1/2/1
f 4/2/1 2/2/1 3/2/1
f 6/2/1 3/2/1 1/2/1
f 7/2/1 3/2/1 6/2/1
f 8/2/1 3/2/1 7/2/1
f 9/3/1 4/3/1 3/3/1
f 9/2/1 3/2/1 8/2/1
f 10/3/1 4/3/1 9/3/1
f 12/1/1 6/1/1 5/1/1
f 13/2/1 7/2/1 6/2/1
f 13/1/1 6/1/1 12/1/1
f 14/2/1 7/2/1 13/2/1
f 15/3/1 8/3/1 7/3/1
f 15/2/1 7/2/1 14/2/1
f 16/2/1 10/2/1 9/2/1
f 16/3/1 8/3/1 15/3/1
f 16/2/1 11/2/1 10/2/1
f 16/2/1 9/2/1 8/2/1
f 17/3/1 15/3/1 14/3/1
f 17/2/1 14/2/1 13/2/1
f 17/2/1 13/2/1 12/2/1
f 18/2/1 16/2/1 15/2/1
f 18/3/1 15/3/1 17/3/1
f 19/2/1 11/2/1 16/2/1
f 19/2/1 16/2/1 18/2/1
f 19/2/1 18/2/1 17/2/1
f 20/2/1 11/2/1 19/2/1
f 21/2/1 19/2/1 17/2/1
f 21/1/1 20/1/1 19/1/1
f 22/2/1 11/2/1 20/2/1
f 22/1/1 20/1/1 21/1/1
f 23/2/1 11/2/1 22/2/1
f 24/2/1 22/2/1 21/2/1
f 24/1/1 23/1/1 22/1/1
f 25/2/1 11/2/1 23/2/1
f 25/1/1 23/1/1 24/1/1
f 26/2/1 11/2/1 25/2/1
f 27/2/1 17/2/1 12/2/1
f 27/2/1 21/2/1 17/2/1
f 27/2/1 24/2/1 21/2/1
f 27/2/1 25/2/1 24/2/1
f 28/2/1 25/2/1 27/2/1
f 29/2/1 11/2/1 26/2/1
f 30/2/1 11/2/1 29/2/1
f 31/2/1 25/2/1 28/2/1
f 31/1/1 26/1/1 25/1/1
f 32/2/1 29/2/1 26/2/1
f 32/1/1 26/1/1 31/1/1
f 33/2/1 31/2/1 28/2/1
f 33/2/1 32/2/1 31/2/1
f 34/2/1 32/2/1 33/2/1
f 35/2/1 32/2/1 34/2/1
f 36/2/1 29/2/1 32/2/1
f 36/2/1 32/2/1 35/2/1
f 37/2/1 35/2/1 34/2/1
f 38/2/1 35/2/1 37/2/1
f 43/1/1 40/1/1 39/1/1
f 44/1/1 40/1/1 43/1/1
f 45/2/1 42/2/1 41/2/1
f 46/2/1 42/2/1 45/2/1
f 51/2/1 48/2/1 47/2/1
f 52/2/1 48/2/1 51/2/1
f 57/1/1 50/1/1 49/1/1
f 58/1/1 50/1/1 57/1/1
f 59/2/1 54/2/1 53/2/1
f 60/1/1 55/1/1 54/1/1
f 60/2/1 54/2/1 59/2/1
f 61/2/1 56/2/1 55/2/1
f 61/1/1 55/1/1 60/1/1
f 62/2/1 56/2/1 61/2/1
f 67/2/1 64/2/1 63/2/1
f 68/2/1 64/2/1 67/2/1
f 69/2/1 66/2/1 65/2/1
f 70/2/1 66/2/1 69/2/1
f 75/2/1 72/2/1 71/2/1
f 76/2/1 72/2/1 75/2/1
f 77/1/1 76/1/1 75/1/1
f 78/1/1 76/1/1 77/1/1
f 79/2/1 74/2/1 73/2/1
f 80/2/1 74/2/1 79/2/1
f 85/2/1 82/2/1 81/2/1
f 86/2/1 82/2/1 85/2/1
f 90/2/1 84/2/1 83/2/1
f 91/2/1 84/2/1 90/2/1
f 92/2/1 89/2/1 88/2/1
f 92/2/1 88/2/1 87/2/1
f 93/2/1 89/2/1 92/2/1
f 98/2/1 95/2/1 94/2/1
f 99/2/1 95/2/1 98/2/1
f 102/2/1 97/2/1 96/2/1
f 103/2/1 97/2/1 102/2/1
f 104/2/1 101/2/1 100/2/1
f 105/2/1 101/2/1 104/2/1
f 110/2/1 107/2/1 106/2/1
f 111/2/1 107/2/1 110/2/1
f 112/2/1 109/2/1 108/2/1
f 113/2/1 109/2/1 112/2/1
f 114/2/2 115/2/2 118/2/2
f 118/2/2 115/2/2 119/2/2
f 116/2/2 117/2/2 120/2/2
f 120/2/2 117/2/2 121/2/2
f 122/2/2 123/2/2 126/2/2
f 126/2/2 123/2/2 127/2/2
f 124/2/2 125/2/2 130/2/2
f 130/2/2 125/2/2 131/2/2
f 128/2/2 129/2/2 132/2/2
f 132/2/2 129/2/2 133/2/2
f 134/2/2 135/2/2 138/2/2
f 138/2/2 135/2/2 139/2/2
f 136/2/2 137/2/2 140/2/2
f 140/2/2 137/2/2 141/2/2
f 144/2/2 145/2/2 146/2/2
f 146/2/2 145/2/2 147/2/2
f 142/2/2 143/2/2 148/2/2
f 148/2/2 143/2/2 149/2/2
f 146/1/2 147/1/2 150/1/2
f 150/1/2 147/1/2 151/1/2
f 152/2/2 153/2/2 156/2/2
f 156/2/2 153/2/2 157/2/2
f 154/2/2 155/2/2 161/2/2
f 161/2/2 155/2/2 162/2/2
f 159/2/2 160/2/2 163/2/2
f 158/2/2 159/2/2 163/2/2
f 163/2/2 160/2/2 164/2/2
f 165/2/2 166/2/2 169/2/2
f 169/2/2 166/2/2 170/2/2
f 167/1/2 168/1/2 171/1/2
f 171/1/2 168/1/2 172/1/2
f 173/1/2 174/1/2 177/1/2
f 177/1/2 174/1/2 178/1/2
f 175/2/2 176/2/2 183/2/2
f 183/2/2 176/2/2 184/2/2
f 179/2/2 180/2/2 185/2/2
f 180/1/2 181/1/2 186/1/2
f 185/2/2 180/2/2 186/2/2
f 181/2/2 182/2/2 187/2/2
f 186/1/2 181/1/2 187/1/2
f 187/2/2 182/2/2 188/2/2
f 189/2/2 190/2/2 191/2/2
f 191/2/2 190/2/2 192/2/2
f 191/3/2 192/3/2 194/3/2
f 192/2/2 190/2/2 195/2/2
f 194/3/2 192/3/2 195/3/2
f 195/2/2 190/2/2 196/2/2
f 196/2/2 190/2/2 197/2/2
f 197/2/2 190/2/2 198/2/2
f 193/2/2 194/2/2 200/2/2
f 194/2/2 195/2/2 200/2/2
f 195/2/2 196/2/2 200/2/2
f 196/3/2 197/3/2 200/3/2
f 197/2/2 198/2/2 201/2/2
f 200/3/2 197/3/2 201/3/2
f 201/2/2 198/2/2 202/2/2
f 198/1/2 199/1/2 203/1/2
f 202/2/2 198/2/2 203/2/2
f 203/1/2 199/1/2 204/1/2
f 201/3/2 202/3/2 205/3/2
f 200/2/2 201/2/2 205/2/2
f 203/2/2 204/2/2 206/2/2
f 205/3/2 202/3/2 206/3/2
f 202/2/2 203/2/2 206/2/2
f 193/2/2 200/2/2 207/2/2
f 200/2/2 205/2/2 207/2/2
f 205/2/2 206/2/2 207/2/2
f 207/2/2 206/2/2 208/2/2
f 193/2/2 207/2/2 209/2/2
f 207/1/2 208/1/2 210/1/2
f 209/2/2 207/2/2 210/2/2
f 208/2/2 206/2/2 211/2/2
f 210/1/2 208/1/2 211/1/2
f 193/2/2 209/2/2 212/2/2
f 209/1/2 210/1/2 213/1/2
f 212/2/2 209/2/2 213/2/2
f 210/2/2 211/2/2 214/2/2
f 213/1/2 210/1/2 214/1/2
f 193/2/2 212/2/2 215/2/2
f 215/2/2 212/2/2 216/2/2
f 206/2/2 204/2/2 217/2/2
f 214/2/2 211/2/2 217/2/2
f 211/2/2 206/2/2 217/2/2
f 213/2/2 214/2/2 217/2/2
f 217/2/2 204/2/2 218/2/2
f 216/2/2 212/2/2 219/2/2
f 212/1/2 213/1/2 219/1/2
f 213/2/2 217/2/2 220/2/2
f 219/1/2 213/1/2 220/1/2
f 216/2/2 219/2/2 221/2/2
f 219/2/2 220/2/2 221/2/2
f 220/2/2 217/2/2 222/2/2
f 221/2/2 220/2/2 222/2/2
f 222/2/2 217/2/2 223/2/2
f 223/2/2 217/2/2 224/2/2
f 222/2/2 223/2/2 225/2/2
f 225/2/2 223/2/2 226/2/2
f 230/2/3 228/2/3 227/2/3
f 231/1/3 229/1/3 228/1/3
f 231/2/3 228/2/3 230/2/3
f 232/1/3 229/1/3 231/1/3
f 233/2/3 230/2/3 227/2/3
f 234/1/3 231/1/3 230/1/3
f 234/2/3 230/2/3 233/2/3
f 235/2/3 232/2/3 231/2/3
f 235/1/3 231/1/3 234/1/3
f 236/1/3 234/1/3 233/1/3
f 237/2/3 235/2/3 234/2/3
f 237/1/3 234/1/3 236/1/3
f 238/2/3 237/2/3 236/2/3
f 239/2/3 232/2/3 235/2/3
f 239/2/3 237/2/3 238/2/3
f 239/2/3 235/2/3 237/2/3
f 243/2/3 242/2/3 241/2/3
f 246/1/3 241/1/3 240/1/3
f 247/2/3 243/2/3 241/2/3
f 247/1/3 241/1/3 246/1/3
f 248/2/3 243/2/3 247/2/3
f 249/2/3 243/2/3 248/2/3
f 250/1/3 244/1/3 243/1/3
f 250/2/3 243/2/3 249/2/3
f 251/1/3 244/1/3 250/1/3
f 252/2/3 251/2/3 250/2/3
f 253/2/3 246/2/3 245/2/3
f 253/2/3 247/2/3 246/2/3
f 253/2/3 248/2/3 247/2/3
f 254/2/3 253/2/3 245/2/3
f 255/2/3 253/2/3 254/2/3
f 256/2/3 254/2/3 245/2/3
f 257/2/3 254/2/3 256/2/3
f 258/1/3 255/1/3 254/1/3
f 259/2/3 251/2/3 252/2/3
f 260/1/3 258/1/3 254/1/3
f 260/2/3 254/2/3 257/2/3
f 261/2/3 259/2/3 258/2/3
f 261/1/3 258/1/3 260/1/3
f 262/2/3 251/2/3 259/2/3
f 262/2/3 259/2/3 261/2/3
f 263/2/3 251/2/3 262/2/3
f 264/2/3 260/2/3 257/2/3
f 264/2/3 261/2/3 260/2/3
f 264/2/3 262/2/3 261/2/3
f 265/2/3 262/2/3 264/2/3
f 270/2/3 269/2/3 268/2/3
f 271/2/3 269/2/3 270/2/3
f 272/2/3 267/2/3 266/2/3
f 273/2/3 267/2/3 272/2/3
f 274/2/3 269/2/3 271/2/3
f 275/2/3 272/2/3 266/2/3
f 278/2/3 269/2/3 274/2/3
f 279/2/3 275/2/3 266/2/3
f 280/3/3 276/3/3 275/3/3
f 280/2/3 275/2/3 279/2/3
f 281/3/3 276/3/3 280/3/3
f 282/2/3 278/2/3 277/2/3
f 283/2/3 269/2/3 278/2/3
f 283/2/3 278/2/3 282/2/3
f 286/2/3 285/2/3 284/2/3
f 287/2/3 285/2/3 286/2/3
f 288/1/3 287/1/3 286/1/3
f 289/1/3 287/1/3 288/1/3
f 292/2/3 291/2/3 290/2/3
f 293/2/3 291/2/3 292/2/3
f 296/2/3 295/2/3 294/2/3
f 297/2/3 295/2/3 296/2/3
f 298/2/3 295/2/3 297/2/3
f 301/2/3 300/2/3 299/2/3
f 302/2/3 300/2/3 301/2/3
f 305/2/3 304/2/3 303/2/3
f 306/2/3 304/2/3 305/2/3
f 309/2/3 308/2/3 307/2/3
f 310/2/3 308/2/3 309/2/3
f 313/2/3 312/2/3 311/2/3
f 314/2/3 312/2/3 313/2/3
f 317/2/3 316/2/3 315/2/3
f 318/2/3 316/2/3 317/2/3
f 321/2/3 320/2/3 319/2/3
f 322/2/3 320/2/3 321/2/3
f 325/2/3 324/2/3 323/2/3
f 326/2/3 324/2/3 325/2/3
f 329/2/3 328/2/3 327/2/3
f 330/2/3 328/2/3 329/2/3
f 333/2/3 332/2/3 331/2/3
f 334/2/3 332/2/3 333/2/3
f 335/2/4 336/2/4 337/2/4
f 337/2/4 336/2/4 338/2/4
f 339/2/4 340/2/4 341/2/4
f 341/2/4 340/2/4 342/2/4
f 343/2/4 344/2/4 345/2/4
f 345/2/4 344/2/4 346/2/4
f 347/2/4 348/2/4 349/2/4
f 349/2/4 348/2/4 350/2/4
f 351/2/4 352/2/4 353/2/4
f 353/2/4 352/2/4 354/2/4
f 355/2/4 356/2/4 357/2/4
f 357/2/4 356/2/4 358/2/4
f 359/2/4 360/2/4 361/2/4
f 361/2/4 360/2/4 362/2/4
f 363/2/4 364/2/4 365/2/4
f 365/2/4 364/2/4 366/2/4
f 367/2/4 368/2/4 369/2/4
f 369/2/4 368/2/4 370/2/4
f 371/2/4 372/2/4 373/2/4
f 373/2/4 372/2/4 374/2/4
f 374/2/4 372/2/4 375/2/4
f 376/2/4 377/2/4 378/2/4
f 378/2/4 377/2/4 379/2/4
f 380/1/4 381/1/4 382/1/4
f 382/1/4 381/1/4 383/1/4
f 382/2/4 383/2/4 384/2/4
f 384/2/4 383/2/4 385/2/4
f 389/2/4 390/2/4 391/2/4
f 391/2/4 390/2/4 392/2/4
f 386/2/4 387/2/4 393/2/4
f 387/3/4 388/3/4 393/3/4
f 393/3/4 388/3/4 394/3/4
f 386/2/4 393/2/4 395/2/4
f 392/2/4 390/2/4 397/2/4
f 397/2/4 390/2/4 399/2/4
f 395/2/4 396/2/4 400/2/4
f 386/2/4 395/2/4 400/2/4
f 400/2/4 396/2/4 401/2/4
f 398/2/4 399/2/4 402/2/4
f 399/2/4 390/2/4 403/2/4
f 402/2/4 399/2/4 403/2/4
f 404/2/4 405/2/4 406/2/4
f 406/2/4 405/2/4 407/2/4
f 407/2/4 405/2/4 408/2/4
f 404/2/4 406/2/4 411/2/4
f 408/2/4 409/2/4 412/2/4
f 406/1/4 407/1/4 412/1/4
f 407/2/4 408/2/4 412/2/4
f 412/2/4 409/2/4 413/2/4
f 410/2/4 411/2/4 414/2/4
f 411/2/4 406/2/4 414/2/4
f 406/1/4 412/1/4 414/1/4
f 414/1/4 412/1/4 415/1/4
f 414/2/4 415/2/4 416/2/4
f 413/2/4 409/2/4 417/2/4
f 414/2/4 416/2/4 418/2/4
f 410/2/4 414/2/4 418/2/4
f 418/2/4 416/2/4 419/2/4
f 419/2/4 416/2/4 420/2/4
f 420/2/4 416/2/4 421/2/4
f 417/2/4 409/2/4 423/2/4
f 423/2/4 409/2/4 424/2/4
f 421/2/4 422/2/4 425/2/4
f 423/1/4 424/1/4 425/1/4
f 422/2/4 423/2/4 425/2/4
f 420/2/4 421/2/4 425/2/4
f 425/1/4 424/1/4 426/1/4
f 419/1/4 420/1/4 427/1/4
f 420/2/4 425/2/4 428/2/4
f 427/1/4 420/1/4 428/1/4
f 428/2/4 425/2/4 429/2/4
f 430/2/4 431/2/4 432/2/4
f 432/2/4 431/2/4 433/2/4
f 432/1/4 433/1/4 434/1/4
f 433/2/4 431/2/4 435/2/4
f 434/1/4 433/1/4 435/1/4
f 435/2/4 431/2/4 436/2/4
f 434/2/4 435/2/4 437/2/4
f 435/1/4 436/1/4 437/1/4
f 436/2/4 431/2/4 438/2/4
f 437/1/4 436/1/4 438/1/4
f 438/2/4 431/2/4 439/2/4
f 434/2/4 437/2/4 440/2/4
f 437/2/4 438/2/4 440/2/4
f 438/1/4 439/1/4 441/1/4
f 440/2/4 438/2/4 441/2/4
f 441/1/4 439/1/4 442/1/4
f 445/2/5 444/2/5 443/2/5
f 446/2/5 444/2/5 445/2/5
f 449/2/5 448/2/5 447/2/5
f 450/2/5 448/2/5 449/2/5
f 453/2/5 452/2/5 451/2/5
f 454/2/5 452/2/5 453/2/5
f 459/1/5 456/1/5 455/1/5
f 460/1/5 456/1/5 459/1/5
f 461/2/5 458/2/5 457/2/5
f 462/2/5 458/2/5 461/2/5
f 467/2/5 464/2/5 463/2/5
f 468/2/5 464/2/5 467/2/5
f 469/1/5 466/1/5 465/1/5
f 470/1/5 466/1/5 469/1/5
f 475/2/5 472/2/5 471/2/5
f 476/1/5 473/1/5 472/1/5
f 476/2/5 472/2/5 475/2/5
f 477/2/5 474/2/5 473/2/5
f 477/1/5 473/1/5 476/1/5
f 478/2/5 474/2/5 477/2/5
f 483/2/5 480/2/5 479/2/5
f 484/1/5 481/1/5 480/1/5
f 484/2/5 480/2/5 483/2/5
f 485/2/5 482/2/5 481/2/5
f 485/1/5 481/1/5 484/1/5
f 486/2/5 482/2/5 485/2/5
f 487/1/6 488/1/6 492/1/6
f 488/2/6 489/2/6 493/2/6
f 492/1/6 488/1/6 493/1/6
f 493/2/6 489/2/6 494/2/6
f 490/2/6 491/2/6 497/2/6
f 497/2/6 491/2/6 498/2/6
f 495/2/6 496/2/6 499/2/6
f 499/2/6 496/2/6 500/2/6
f 501/2/6 502/2/6 505/2/6
f 505/2/6 502/2/6 506/2/6
f 503/2/6 504/2/6 510/2/6
f 510/2/6 504/2/6 511/2/6
f 507/2/6 508/2/6 512/2/6
f 508/1/6 509/1/6 513/1/6
f 512/2/6 508/2/6 513/2/6
f 513/1/6 509/1/6 514/1/6
f 515/1/6 516/1/6 518/1/6
f 516/2/6 517/2/6 519/2/6
f 518/1/6 516/1/6 519/1/6
f 519/2/6 517/2/6 520/2/6
f 521/2/6 522/2/6 524/2/6
f 522/1/6 523/1/6 525/1/6
f 524/2/6 522/2/6 525/2/6
f 525/1/6 523/1/6 526/1/6
f 527/2/6 528/2/6 529/2/6
f 529/2/6 528/2/6 530/2/6
f 530/2/6 528/2/6 531/2/6
f 527/2/6 529/2/6 532/2/6
f 532/2/6 529/2/6 533/2/6
f 531/2/6 528/2/6 534/2/6
f 534/2/6 528/2/6 535/2/6
f 536/2/6 537/2/6 540/2/6
f 538/2/6 539/2/6 542/2/6
f 540/2/6 541/2/6 543/2/6
f 541/2/6 542/2/6 543/2/6
f 536/2/6 540/2/6 543/2/6
f 542/2/6 539/2/6 544/2/6
f 543/2/6 542/2/6 544/2/6
f 545/2/6 546/2/6 549/2/6
f 549/2/6 546/2/6 550/2/6
f 546/1/6 547/1/6 551/1/6
f 550/2/6 546/2/6 551/2/6
f 551/1/6 547/1/6 552/1/6
f 552/1/6 547/1/6 553/1/6
f 549/2/6 550/2/6 555/2/6
f 548/2/6 549/2/6 555/2/6
f 555/2/6 550/2/6 556/2/6
f 553/2/6 554/2/6 557/2/6
f 552/2/6 553/2/6 557/2/6
f 557/2/6 554/2/6 558/2/6
f 548/2/6 555/2/6 559/2/6
f 548/2/6 559/2/6 560/2/6
f 558/2/6 554/2/6 561/2/6
f 561/2/6 554/2/6 562/2/6
f 548/2/6 560/2/6 563/2/6
f 562/2/6 554/2/6 566/2/6
f 563/2/6 564/2/6 567/2/6
f 548/2/6 563/2/6 567/2/6
f 567/2/6 564/2/6 568/2/6
f 568/2/6 564/2/6 569/2/6
f 565/2/6 566/2/6 571/2/6
f 566/2/6 554/2/6 572/2/6
f 571/2/6 566/2/6 572/2/6
f 572/2/6 554/2/6 573/2/6
f 569/1/6 570/1/6 574/1/6
f 568/1/6 569/1/6 574/1/6
f 570/2/6 571/2/6 575/2/6
f 574/1/6 570/1/6 575/1/6
f 571/2/6 572/2/6 575/2/6
f 575/2/6 572/2/6 576/2/6
f 577/2/6 578/2/6 580/2/6
f 580/2/6 578/2/6 581/2/6
f 581/2/6 578/2/6 582/2/6
f 582/2/6 578/2/6 583/2/6
f 579/2/6 580/2/6 585/2/6
f 580/2/6 581/2/6 585/2/6
f 585/2/6 581/2/6 586/2/6
f 586/2/6 581/2/6 587/2/6
f 583/2/6 584/2/6 588/2/6
f 582/2/6 583/2/6 588/2/6
f 588/2/6 584/2/6 589/2/6
f 585/1/6 586/1/6 590/1/6
f 590/1/6 586/1/6 591/1/6
f 589/2/6 584/2/6 592/2/6
f 592/2/6 584/2/6 593/2/6
f 590/2/6 591/2/6 594/2/6
f 592/1/6 593/1/6 597/1/6
f 597/1/6 593/1/6 598/1/6
f 594/2/6 595/2/6 599/2/6
f 590/2/6 594/2/6 599/2/6
f 599/2/6 595/2/6 600/2/6
f 600/2/6 595/2/6 601/2/6
f 597/2/6 598/2/6 602/2/6
f 596/2/6 597/2/6 602/2/6
f 602/2/6 598/2/6 603/2/6
f 603/2/6 598/2/6 604/2/6
f 600/2/6 601/2/6 605/2/6
f 602/2/6 603/2/6 605/2/6
f 601/2/6 602/2/6 605/2/6
f 605/2/6 603/2/6 606/2/6
f 607/2/6 608/2/6 610/2/6
f 610/2/6 608/2/6 611/2/6
f 611/2/6 608/2/6 612/2/6
f 612/2/6 608/2/6 613/2/6
f 609/2/6 610/2/6 615/2/6
f 610/2/6 611/2/6 615/2/6
f 615/2/6 611/2/6 616/2/6
f 613/2/6 614/2/6 617/2/6
f 612/2/6 613/2/6 617/2/6
f 617/2/6 614/2/6 618/2/6
f 609/2/6 615/2/6 619/2/6
f 618/2/6 614/2/6 622/2/6
f 619/2/6 620/2/6 623/2/6
f 609/2/6 619/2/6 623/2/6
f 623/2/6 620/2/6 624/2/6
f 624/2/6 620/2/6 625/2/6
f 621/2/6 622/2/6 626/2/6
f 622/2/6 614/2/6 627/2/6
f 626/2/6 622/2/6 627/2/6
f 627/2/6 614/2/6 628/2/6
f 624/2/6 625/2/6 629/2/6
f 625/2/6 626/2/6 629/2/6
f 626/2/6 627/2/6 629/2/6
f 629/2/6 627/2/6 630/2/6
f 631/2/6 632/2/6 634/2/6
f 634/2/6 632/2/6 635/2/6
f 633/2/6 634/2/6 637/2/6
f 635/2/6 636/2/6 637/2/6
f 634/2/6 635/2/6 637/2/6
f 637/2/6 636/2/6 638/2/6
f 638/2/6 636/2/6 639/2/6
f 639/2/6 636/2/6 640/2/6
f 638/2/6 639/2/6 641/2/6
f 641/2/6 639/2/6 642/2/6
